<svg width="305" height="70" viewBox="0 0 305 70" fill="none" xmlns="http://www.w3.org/2000/svg">
<g clip-path="url(#clip0_2418_85)">
<path d="M67.568 0V23.7269H302.281V0H67.568ZM0 38.3281V69.9997H46.0495V64.0948H21.6799V57.2237H46.0495V51.1577H21.5723V44.2329H46.0495V38.3281H0Z" fill="#D4082C"/>
<path d="M77.1974 38.3282C71.8651 38.3282 67.5679 42.657 67.5679 47.9907V69.9998H109.367C109.367 69.9998 109.421 65.7634 109.421 65.3296C109.421 64.9023 109.113 64.694 108.776 64.6854C108.449 64.6734 81.3934 64.6854 81.3934 64.6854V56.8481H105.171V52.2315C105.171 51.8343 104.92 51.5874 104.526 51.5874H81.3934V43.5889H109.367V38.865C109.367 38.4399 109.113 38.3282 108.776 38.3282H77.1974ZM124.699 38.3282C119.378 38.3282 115.07 42.657 115.07 47.9907V69.9998H157.246V52.2315C157.246 51.8966 156.925 51.5874 156.601 51.5874C156.31 51.5874 141.748 51.6409 138.202 51.6409C137.793 51.6409 137.557 51.9136 137.557 52.2314V56.848H151.759V64.2022H128.842V43.5351H157.246V38.8649C157.246 38.4634 156.996 38.3281 156.601 38.3281L124.699 38.3282ZM173.224 38.3282C167.902 38.3282 163.594 42.6549 163.594 47.9907V69.9998H205.77V52.2315C205.77 51.8966 205.499 51.5874 205.178 51.5874C204.886 51.5874 190.329 51.6409 186.78 51.6409C186.373 51.6409 186.188 51.9115 186.188 52.2314C186.188 52.5514 186.135 56.848 186.135 56.848H200.337V64.2022H177.42V43.5351H205.77V38.8649C205.77 38.4634 205.572 38.3281 205.179 38.3281L173.224 38.3282ZM221.855 38.3282C216.525 38.3282 212.226 42.657 212.226 47.9907V69.9998H254.025V65.3296C254.025 64.9023 253.769 64.694 253.434 64.6854C253.104 64.6734 226.051 64.6854 226.051 64.6854V56.8481H249.776V52.2315C249.776 51.8343 249.578 51.5874 249.184 51.5874H226.051V43.5889H254.025V38.865C254.025 38.442 253.716 38.3282 253.38 38.3282H221.855ZM269.25 38.3282C263.93 38.3282 259.674 42.6549 259.674 47.9907V69.9998H273.446V56.8481C273.446 56.8481 288.152 69.4265 287.648 69.0873C288.285 69.5983 288.58 70.0127 289.208 69.9998H304.325C305.812 69.9998 304.379 68.8725 304.379 68.8725L290.176 56.8481H293.942C298.549 56.8481 302.281 52.1735 302.281 47.5613C302.281 42.9512 298.592 38.3282 293.996 38.3282H269.25ZM273.446 43.5889H292.059C293.654 43.5889 295.664 44.83 295.664 47.615C295.664 50.1294 293.531 51.641 292.059 51.641H273.446V43.5889Z" fill="black"/>
</g>
<defs>
<clipPath id="clip0_2418_85">
<rect width="305" height="70" fill="white"/>
</clipPath>
</defs>
</svg>
